<svg width="53" height="42" viewBox="0 0 53 42" fill="none" xmlns="http://www.w3.org/2000/svg">
<path d="M7.02614 21.2831C7.20725 21.7201 7.22382 22.2079 7.0728 22.6562C6.92177 23.1044 6.61338 23.4828 6.20477 23.7211L5.96748 23.8385L3.55028 24.8398C3.09304 25.0261 2.58221 25.0326 2.12037 24.858C1.65852 24.6833 1.27983 24.3404 1.06034 23.8981C0.840836 23.4558 0.79677 22.9469 0.936983 22.4734C1.0772 22 1.39131 21.5971 1.81627 21.3456L2.05355 21.2257L4.47075 20.227C4.94967 20.0283 5.48789 20.028 5.96708 20.226C6.44627 20.424 6.82721 20.8042 7.02614 21.2831ZM23.9413 8.68079L23.4928 8.83203C18.8409 10.4748 15.5085 14.0602 14.0665 18.8007L13.884 19.4526L13.7328 20.0732L13.1956 20.1749C11.6348 20.4999 10.1544 21.1328 8.84099 22.0366C7.64588 19.9825 7.19946 17.5777 7.57772 15.2315C7.95598 12.8852 9.13554 10.7426 10.9157 9.16807C12.6958 7.59359 14.9665 6.68459 17.3414 6.59574C19.7162 6.5069 22.0485 7.24371 23.9413 8.68079ZM3.30257 8.76162L3.57636 8.85289L5.99355 9.85419C6.44759 10.0445 6.81314 10.3991 7.01722 10.8471C7.2213 11.2951 7.2489 11.8036 7.0945 12.2711C6.9401 12.7386 6.61507 13.1306 6.18429 13.369C5.75352 13.6073 5.2487 13.6744 4.77062 13.5569L4.50204 13.4709L2.08484 12.4696C1.63081 12.2792 1.26526 11.9247 1.06117 11.4766C0.857094 11.0286 0.829499 10.5201 0.983898 10.0526C1.1383 9.58514 1.46333 9.19309 1.89411 8.95475C2.32488 8.71641 2.8297 8.64931 3.30778 8.76684M13.2556 0.980706L13.3729 1.21799L14.3742 3.63519C14.5606 4.09244 14.5671 4.60326 14.3924 5.06511C14.2178 5.52695 13.8749 5.90564 13.4326 6.12514C12.9903 6.34464 12.4813 6.3887 12.0079 6.24849C11.5344 6.10828 11.1315 5.79416 10.8801 5.36921L10.7601 5.13192L9.76146 2.71472C9.57509 2.25748 9.56858 1.74665 9.74324 1.28481C9.9179 0.82296 10.2608 0.444276 10.7031 0.224776C11.1454 0.00527685 11.6544 -0.0387898 12.1278 0.101424C12.6012 0.241637 13.0041 0.555751 13.2556 0.980706ZM24.6088 0.148899C25.0418 0.328588 25.3957 0.657795 25.6063 1.07657C25.8169 1.49534 25.8701 1.97582 25.7561 2.4305L25.6649 2.70429L24.6662 5.12149C24.4788 5.57988 24.1244 5.95009 23.6747 6.15741C23.225 6.36473 22.7133 6.3937 22.243 6.23849C21.7728 6.08328 21.3789 5.75544 21.1409 5.32114C20.903 4.88685 20.8386 4.37844 20.9609 3.89855L21.0521 3.62215L22.0534 1.20756C22.1517 0.970243 22.2957 0.754602 22.4773 0.572957C22.6589 0.391313 22.8745 0.247222 23.1118 0.148913C23.3491 0.0506042 23.6035 3.30128e-06 23.8603 9.53756e-07C24.1172 -1.39377e-06 24.3715 0.0505949 24.6088 0.148899Z" fill="#15FF1D"/>
<path d="M29.5347 10.4487C37.798 10.4487 42.4838 15.9167 43.1643 22.5217H43.3729C44.6357 22.5199 45.8864 22.767 47.0536 23.2487C48.2209 23.7305 49.2818 24.4374 50.1758 25.3292C51.0698 26.221 51.7793 27.2802 52.2639 28.4463C52.7485 29.6124 52.9986 30.8625 53 32.1252C52.9983 33.3878 52.7479 34.6376 52.2632 35.8034C51.7784 36.9692 51.0688 38.028 50.1749 38.9196C49.2809 39.8111 48.2201 40.5178 47.053 40.9994C45.886 41.481 44.6355 41.7279 43.3729 41.7262H15.6964C14.4339 41.7279 13.1834 41.481 12.0163 40.9994C10.8492 40.5178 9.78842 39.8111 8.89447 38.9196C8.00051 38.028 7.29091 36.9692 6.80618 35.8034C6.32145 34.6376 6.07108 33.3878 6.06937 32.1252C6.07074 30.8625 6.32085 29.6124 6.80543 28.4463C7.29001 27.2802 7.99956 26.221 8.89354 25.3292C9.78753 24.4374 10.8485 23.7305 12.0157 23.2487C13.183 22.767 14.4337 22.5199 15.6964 22.5217H15.905C16.5908 15.8724 21.274 10.4487 29.5347 10.4487Z" fill="url(#paint0_linear_30_475)"/>
<defs>
<linearGradient id="paint0_linear_30_475" x1="19.5" y1="14.8631" x2="48.5" y2="39.8631" gradientUnits="userSpaceOnUse">
<stop stop-color="white"/>
<stop offset="1" stop-color="#AECAFF"/>
</linearGradient>
</defs>
</svg>
